# xmcd
#
# Track frame offsets:
#	150
#	40099
#	70930
#	103607
#	174948
#	230177
#	280978
#	324943
#
# Disc length: 4667 seconds
#
# Revision: 1
# Processed by: cddbd v1.5.2PL0 Copyright (c) Steve Scherf et al.
# Submitted via: audiograbber 1.83.01
#
DISCID=69123908
DTITLE=Grateful Dead - 95-06-25A Robert F Kennedy Stadium, Washington DC
DYEAR=1900
DGENRE=
TTITLE0=Truckin'
TTITLE1=Rollin' and Tumblin'
TTITLE2=Samba In The City
TTITLE3=Drums
TTITLE4=Space
TTITLE5=Wharf Rat
TTITLE6=Not Fade Away
TTITLE7=Brokedown Palace
EXTD=
EXTT0=
EXTT1=
EXTT2=
EXTT3=
EXTT4=
EXTT5=
EXTT6=
EXTT7=
PLAYORDER=
